<?xml version="1.0" encoding="utf-8"?><svg viewBox="0 0 19 19" xmlns="http://www.w3.org/2000/svg" xmlns:xlink="http://www.w3.org/1999/xlink"><style>:root>svg{display:none}:root>svg:target{display:block}</style><svg viewBox="0 0 10 19" id="facebook" xmlns="http://www.w3.org/2000/svg"><path d="M10 6.531H6.25V4.156c0-.655.56-1.187 1.25-1.187h1.25V0h-2.5C4.179 0 2.5 1.595 2.5 3.563V6.53H0V9.5h2.5V19h3.75V9.5h2.5L10 6.531z"/></svg><svg viewBox="0 0 19 19" id="instagram" xmlns="http://www.w3.org/2000/svg"><path d="M17.281 0H1.72C.769 0 0 .77 0 1.719V17.28C0 18.231.77 19 1.719 19H17.28c.95 0 1.719-.77 1.719-1.719V1.72C19 .769 18.23 0 17.281 0zM5.88 16.406a.5.5 0 01-.5.5H3.25a.5.5 0 01-.5-.5V7.48a.5.5 0 01.5-.5h2.13a.5.5 0 01.5.5v8.925zM4.315 6.139a2.023 2.023 0 110-4.045 2.023 2.023 0 010 4.045zm12.691 10.307a.46.46 0 01-.46.46h-2.285a.46.46 0 01-.46-.46V12.26c0-.625.184-2.737-1.632-2.737-1.408 0-1.693 1.446-1.75 2.095v4.828a.46.46 0 01-.46.46h-2.21a.46.46 0 01-.46-.46V7.44a.46.46 0 01.46-.46h2.21a.46.46 0 01.46.46v.78c.522-.784 1.297-1.39 2.95-1.39 3.658 0 3.637 3.419 3.637 5.297v4.32z"/></svg><svg viewBox="0 0 19 16" id="twitter" xmlns="http://www.w3.org/2000/svg"><path d="M5.975 15.441c7.17 0 11.092-5.94 11.092-11.09 0-.17-.004-.338-.011-.505A7.931 7.931 0 0019 1.828c-.698.31-1.45.52-2.239.614A3.912 3.912 0 0018.476.285 7.82 7.82 0 0116 1.232a3.899 3.899 0 00-6.643 3.555A11.068 11.068 0 011.322.714a3.889 3.889 0 00-.528 1.959c0 1.352.689 2.546 1.735 3.245A3.869 3.869 0 01.764 5.43v.05A3.9 3.9 0 003.89 9.301a3.91 3.91 0 01-1.761.067 3.903 3.903 0 003.642 2.708A7.82 7.82 0 01.93 13.744c-.314 0-.625-.018-.93-.053a11.035 11.035 0 005.975 1.75z"/></svg></svg>